<?xml version="1.0" encoding="UTF-8" standalone="no"?>
<!-- Created with Inkscape (http://www.inkscape.org/) -->

<svg
   width="210mm"
   height="297mm"
   viewBox="0 0 210 297"
   version="1.1"
   id="svg5"
   inkscape:version="1.1.1 (3bf5ae0d25, 2021-09-20)"
   sodipodi:docname="logo.svg"
   xmlns:inkscape="http://www.inkscape.org/namespaces/inkscape"
   xmlns:sodipodi="http://sodipodi.sourceforge.net/DTD/sodipodi-0.dtd"
   xmlns:xlink="http://www.w3.org/1999/xlink"
   xmlns="http://www.w3.org/2000/svg"
   xmlns:svg="http://www.w3.org/2000/svg">
  <sodipodi:namedview
     id="namedview7"
     pagecolor="#505050"
     bordercolor="#eeeeee"
     borderopacity="1"
     inkscape:pageshadow="0"
     inkscape:pageopacity="0"
     inkscape:pagecheckerboard="0"
     inkscape:document-units="mm"
     showgrid="false"
     inkscape:zoom="0.46324355"
     inkscape:cx="851.60388"
     inkscape:cy="430.65899"
     inkscape:window-width="1366"
     inkscape:window-height="705"
     inkscape:window-x="-8"
     inkscape:window-y="-8"
     inkscape:window-maximized="1"
     inkscape:current-layer="layer1" />
  <defs
     id="defs2">
    <linearGradient
       inkscape:collect="always"
       id="linearGradient8386">
      <stop
         style="stop-color:#ffffff;stop-opacity:1;"
         offset="0"
         id="stop8382" />
      <stop
         style="stop-color:#ffffff;stop-opacity:0;"
         offset="1"
         id="stop8384" />
    </linearGradient>
    <linearGradient
       inkscape:collect="always"
       xlink:href="#linearGradient8386"
       id="linearGradient8388"
       x1="-4.2998562"
       y1="160.07924"
       x2="423.53561"
       y2="31.484772"
       gradientUnits="userSpaceOnUse" />
  </defs>
  <g
     inkscape:label="Layer 1"
     inkscape:groupmode="layer"
     id="layer1">
    <text
       xml:space="preserve"
       style="font-style:normal;font-variant:normal;font-weight:bold;font-stretch:normal;font-size:42.0159px;line-height:1.25;font-family:sans-serif;-inkscape-font-specification:'sans-serif Bold';fill:#f9f9f9;fill-opacity:1;stroke:none;stroke-width:1.0504"
       x="-4.9665742"
       y="156.53386"
       id="text1155"
       transform="matrix(0.89845596,0,0.0496178,1.1130206,0,0)"><tspan
         sodipodi:role="line"
         id="tspan1153"
         style="font-style:normal;font-variant:normal;font-weight:bold;font-stretch:normal;font-family:sans-serif;-inkscape-font-specification:'sans-serif Bold';fill:#f9f9f9;fill-opacity:1;stroke-width:1.0504"
         x="-4.9665742"
         y="156.53386">NFTasker</tspan></text>
    <circle
       id="path9132"
       style="fill:#333333;stroke:#000000;stroke-width:0.264583"
       cx="137.3147"
       cy="242.32005"
       r="0.21517864" />
    <circle
       id="path9134"
       style="fill:#333333;stroke:#000000;stroke-width:0.264583"
       cx="137.3147"
       cy="242.32005"
       r="0.21517864" />
    <circle
       id="path9136"
       style="fill:#333333;stroke:#000000;stroke-width:0.264583"
       cx="140.54564"
       cy="156.7003"
       r="0.10758932" />
    <circle
       id="path9138"
       style="fill:#333333;stroke:#000000;stroke-width:0.264583"
       cx="140.54564"
       cy="156.7003"
       r="0.10758932" />
    <path
       style="fill:#ffffff;stroke-width:0.264583"
       id="path9482"
       d="m -3.1234028,162.72228 c 0.9599231,1.03509 1.503451,2.43966 2.57222797,3.37788 0.198449,0.1742 0.43000598,0.30661 0.64500898,0.45992 1.24036375,0.80387 2.67456045,1.18027 4.11124665,1.44747 1.503662,0.32361 2.8211184,-0.0892 4.2360842,-0.55325 1.610749,-0.54773 3.143039,-1.29072 4.664288,-2.0455 1.937068,-0.9398 3.798848,-2.08341 5.602022,-3.23776 0.261128,-0.16716 0.46945,-0.4052 0.700227,-0.61227 1.348823,-1.21021 -0.08594,0.0303 1.295484,-1.1502 1.273233,-1.15203 2.727796,-2.06714 4.13333,-3.04312 1.240343,-0.83596 -0.0166,-0.0116 1.198382,-0.74447 0.182214,-0.10992 0.72206,-0.45026 0.536939,-0.34533 -6.251717,3.54394 -0.687822,0.44811 1.444114,-0.88101 0.143211,-0.10064 0.2834,-0.20573 0.429628,-0.30193 0.156974,-0.10328 0.642501,-0.38988 0.479586,-0.29625 -1.70702,0.98105 -4.018865,2.27416 -2.397921,1.42605 0.144703,-0.0757 0.292333,-0.1464 0.432363,-0.23045 1.235435,-0.74148 2.462284,-1.49717 3.693425,-2.24575 0.536482,-0.55074 0.58053,-1.43394 1.278943,-1.82696 -5.837044,3.55971 -3.889137,1.86663 -2.555796,1.71604 0.329435,-0.0372 0.664245,-0.0271 0.994915,-0.0245 0.718371,0.0138 1.436738,0.0278 2.155183,0.0373 0.483033,0.008 0.96621,0.003 1.449202,0.0129 0,0 3.201773,-2.32565 3.201773,-2.32565 v 0 c -0.488217,0.008 -0.976548,0.002 -1.464815,0.002 -0.718791,-0.004 -1.437545,-0.012 -2.156061,-0.0333 -2.458775,-0.0603 -2.143315,0.0834 -5.284502,2.09331 -0.477789,0.56675 -0.662836,1.326 -1.248886,1.80636 0.99159,-0.55589 1.980602,-1.11639 2.974766,-1.66766 0.142838,-0.0792 -0.276061,0.1753 -0.420595,0.25137 -0.152529,0.0803 -0.319288,0.13219 -0.469355,0.21697 -1.600636,0.90434 -3.211128,1.77026 -4.728508,2.80172 -0.144212,0.0917 -0.58186,0.35836 -0.432636,0.27507 0.952945,-0.53185 3.778387,-2.18563 2.844418,-1.62111 -1.837058,1.11035 -3.772314,2.08484 -5.538713,3.31489 -1.40492,0.97347 -2.83347,1.92058 -4.101572,3.07422 -0.432601,0.37742 -0.85205,0.76988 -1.288902,1.14237 -0.229981,0.1961 -0.980791,0.69349 -0.704703,0.57053 0.851649,-0.37932 1.630353,-0.9049 2.450564,-1.34811 0.272919,-0.14747 -0.53386,0.31666 -0.808544,0.46082 -0.219259,0.11507 -0.448111,0.21085 -0.672166,0.31627 -1.518662,0.76703 -3.03719,1.54478 -4.64828,2.10401 -1.406122,0.46884 -2.5861761,0.95882 -4.1024291,0.68849 -1.4105424,-0.21675 -2.7995697,-0.55449 -4.0345825,-1.30127 -0.2033188,-0.12863 -0.4232066,-0.2342 -0.6099564,-0.38589 -0.4661369,-0.37862 -0.7001687,-0.75389 -1.0462001,-1.24001 -0.4966788,-0.69776 -0.97203118,-1.41019 -1.4425555,-2.12573 0,0 -3.3664412,1.99112 -3.3664412,1.99112 z" />
    <path
       style="fill:#ffffff;stroke-width:0.264583"
       id="path9484"
       d="m 120.1826,143.10113 c 0.0587,1.55094 0.0554,3.10419 0.0526,4.65613 -0.0226,1.55295 -0.0123,3.10552 -0.003,4.65851 -0.005,1.59934 -0.017,3.19808 0.006,4.79728 -0.0244,2.02087 0.0647,4.04338 -0.0507,6.06137 -0.19491,2.18806 -0.33435,4.38033 -0.46592,6.57295 0.0538,1.35936 0.31955,2.69382 0.3645,4.05343 -0.0238,1.36961 -0.0564,2.74225 -0.16556,4.10811 -0.14149,1.12624 -0.41794,2.22697 -0.63764,3.33862 -0.0393,0.1469 -0.0787,0.29379 -0.118,0.44068 0,0 3.52752,-1.69091 3.52752,-1.69091 v 0 c 0.0345,-0.15161 0.069,-0.30321 0.10351,-0.45482 0.21801,-1.11888 0.4736,-2.23139 0.59405,-3.36718 0.1063,-1.3738 0.0991,-2.7544 0.12447,-4.1315 -0.0196,-1.3531 -0.306,-2.67127 -0.36637,-4.02253 0.0692,-2.18444 0.22007,-4.36337 0.41124,-6.54048 0.11818,-2.03311 0.081,-4.06787 0.0859,-6.10371 0.0227,-1.60122 0.0109,-3.20197 0.006,-4.80332 0.009,-1.55187 0.0194,-3.10333 -0.003,-4.65515 -0.003,-1.56983 -0.005,-3.14086 0.0526,-4.70973 0,0 -3.51748,1.79225 -3.51748,1.79225 z" />
    <path
       style="fill:#ffffff;stroke-width:0.264583"
       id="path9486"
       d="m 5.1710462,167.08424 c 0.8432602,0.008 1.6806333,-0.0218 2.5149823,-0.14834 0.8009321,-0.1066 1.5246459,-0.46881 2.2822559,-0.72215 0.7468466,-0.14504 1.4542006,-0.37588 2.1605916,-0.65548 0.800064,-0.29489 1.58464,-0.62775 2.376533,-0.94301 1.903157,-0.76482 3.701451,-1.81436 5.342119,-3.04436 0.477195,-0.47922 0.8151,-1.09033 1.137275,-1.68139 0.402925,-0.57113 0.967474,-1.01207 1.541131,-1.40172 0.519431,-0.25241 -0.0029,0.0185 0.461551,-0.27201 0.06795,-0.0425 0.28091,-0.15446 0.211646,-0.11412 -5.344344,3.11186 -3.934113,2.15953 -2.594921,1.58449 2.033247,-0.81554 3.777776,-2.01417 5.668951,-3.16186 0.486318,-0.47141 0.257012,-0.22707 0.689214,-0.7318 0,0 -3.603094,1.51225 -3.603094,1.51225 v 0 c -0.447515,0.46125 -0.210524,0.23695 -0.712891,0.67088 5.837815,-3.27249 2.500035,-1.30182 1.044579,-0.72761 -1.701518,0.7166 -3.292329,1.67549 -4.829685,2.69452 -0.558118,0.44926 -1.115691,0.90587 -1.465664,1.54674 -0.335166,0.55829 -0.665427,1.14371 -1.206171,1.52927 -1.133559,0.79191 -2.841197,1.69675 2.466793,-1.33818 0.232269,-0.1328 -0.471713,0.25356 -0.715616,0.36354 -0.114707,0.0517 -0.230683,0.1006 -0.346025,0.15089 -0.802692,0.2907 -1.571501,0.6665 -2.380472,0.94249 -0.705467,0.26844 -1.371458,0.60532 -2.136015,0.67223 -0.774792,0.21796 -1.477109,0.61047 -2.268365,0.76801 -0.801741,0.17733 -1.614539,0.22351 -2.434338,0.17862 0,0 -3.2043648,2.3281 -3.2043648,2.3281 z" />
    <path
       style="fill:#ffffff;stroke-width:0.264583"
       id="path9488"
       d="m 5.7618579,167.3618 c 0.6638523,-0.133 1.3324491,-0.21854 2.0069532,-0.26849 0.493349,-0.0165 0.9779807,-0.12959 1.4513959,-0.26316 0.995168,-0.27353 1.951565,-0.66886 2.92143,-1.01875 1.302777,-0.42272 2.581491,-0.90952 3.862216,-1.3938 1.028996,-0.39593 1.996979,-0.92749 2.989948,-1.40283 1.781717,-0.84706 3.439912,-1.89576 5.159222,-2.87168 0.976614,-0.55435 -1.946808,1.11997 -2.916107,1.68702 -0.125444,0.0734 0.256209,-0.13727 0.384314,-0.20591 1.887412,-0.95503 3.773724,-1.94723 5.524506,-3.13525 0.599123,-0.34575 1.128057,-0.79085 1.738633,-1.11928 0.684202,-0.42856 0.835591,-0.54298 1.04036,-1.33901 0.141928,-0.62604 0.06912,-1.2703 0.154628,-1.9011 0.118459,-0.68805 0.522293,-1.21644 1.049332,-1.64895 0.0741,-0.0585 0.148212,-0.11705 0.222316,-0.17558 0,0 -3.656544,1.48118 -3.656544,1.48118 v 0 c -0.07132,0.0658 -0.142639,0.13151 -0.213961,0.19726 -0.488796,0.54723 -0.844735,1.14792 -0.925898,1.89503 -0.04931,0.61133 -0.01855,1.23771 -0.201304,1.83043 -0.236256,0.56192 -0.629948,0.77471 -1.141188,1.074 -0.578782,0.37152 -1.138681,0.77238 -1.725604,1.13168 -1.266604,0.77758 -0.870126,0.52996 2.701676,-1.54201 0.116764,-0.0677 -0.239068,0.12554 -0.356331,0.19241 -0.491554,0.28031 -0.239728,0.16816 -0.753015,0.42204 -0.132753,0.0657 -0.268382,0.12535 -0.402573,0.18802 -2.239595,1.1024 -7.590296,4.37133 -1.272828,0.70987 0.149934,-0.0869 -0.302102,0.1702 -0.457312,0.24728 -0.149619,0.0743 -0.307139,0.13196 -0.4566,0.20657 -0.152523,0.0762 -0.299138,0.1636 -0.448707,0.24539 -0.994359,0.48507 -1.978317,0.99179 -2.98794,1.44426 -1.276639,0.48797 -2.54575,0.99281 -3.852429,1.39682 -0.951092,0.33324 -1.885941,0.7249 -2.855317,0.9981 -0.45286,0.1325 -0.913347,0.28485 -1.383588,0.31811 -0.683258,0.0397 -1.3576029,0.15319 -2.0346349,0.23995 0,0 -3.1650492,2.38038 -3.1650492,2.38038 z" />
    <path
       style="fill:#ffffff;stroke-width:0.264583"
       id="path9490"
       d="m 7.877916,165.61643 c 1.1678541,-0.24502 2.298346,-0.63039 3.411405,-1.05451 0.947298,-0.31172 1.827303,-0.78324 2.747531,-1.15942 0.768705,-0.29413 1.570515,-0.48048 2.353716,-0.73207 0.842369,-0.22033 1.671578,-0.4842 2.46199,-0.85087 1.564531,-0.78328 3.039323,-1.73954 4.569412,-2.58113 1.099629,-0.60482 -2.093021,1.42186 -3.260132,1.88322 -0.184356,0.0729 -0.271351,-0.28907 -0.407026,-0.43361 1.060158,-0.62091 2.124116,-1.23538 3.180473,-1.86274 0.08983,-0.0533 -0.186538,0.0942 -0.28026,0.14034 -0.125888,0.062 -0.568334,0.27288 -0.669508,0.331 -1.245032,0.71521 -2.493293,1.42527 -3.723567,2.16558 -0.121563,0.0731 -0.218231,0.18135 -0.327346,0.27203 -0.319496,0.2921 -0.635639,0.59949 -1.000163,0.83703 -0.133658,0.0871 -0.554519,0.31572 -0.41714,0.23462 2.942044,-1.73678 3.964632,-2.22207 2.528557,-1.52261 -0.837192,0.40596 -1.750818,0.62382 -2.671265,0.7322 0.384792,0.20894 -0.464737,-0.0722 -0.371438,0.009 1.164086,1.01627 2.116113,-0.75851 -2.579748,2.02151 -0.209646,0.12411 0.424389,-0.23941 0.637378,-0.3577 0.236463,-0.1346 0.287446,-0.10749 -0.181828,-0.46876 -0.09333,-0.0719 -0.482281,0.21272 -0.455507,0.19718 3.115981,-1.80904 3.825692,-2.11518 2.193788,-1.35542 -0.583511,0.26828 -1.175211,0.51656 -1.771619,0.75434 -0.01746,0.007 -0.752876,0.29578 -0.830227,0.34162 -1.168987,0.69266 -2.320819,1.41386 -3.4812283,2.1208 0.050808,0.10546 0.073675,0.22977 0.1524236,0.31639 0.3469867,0.38165 1.3196367,0.16633 1.7553067,0.0932 1.188575,-0.32505 2.316943,-0.83719 3.408792,-1.40181 10.430316,-6.05728 0.550051,-0.31488 0.823783,-0.47456 1.2387,-0.72256 2.479013,-1.44236 3.718837,-2.16299 0.114462,-0.0665 0.458255,-0.2654 0.344019,-0.19849 -3.125176,1.83061 -4.0772,2.25823 -2.595469,1.56789 0.816351,-0.39119 1.69128,-0.62886 2.560827,-0.86752 0.545305,-0.16063 1.103177,-0.26942 1.657357,-0.39321 0,0 3.118826,-2.38505 3.118826,-2.38505 v 0 c -0.554474,0.15423 -1.124775,0.23437 -1.677887,0.39672 -0.873408,0.2441 -1.764483,0.44314 -2.596225,0.81499 -1.691983,0.77075 -0.406183,0.17107 -4.130064,2.27641 -0.113264,0.064 -0.446993,0.2665 -0.333911,0.20215 0.993713,-0.56552 3.963596,-2.28168 2.975912,-1.7057 -1.515392,0.88372 -7.533116,4.31942 -0.81865,0.48187 -1.076181,0.57321 -2.169343,1.12162 -3.338622,1.48412 -0.140014,0.036 -0.277695,0.0828 -0.420041,0.10808 -0.222226,0.0395 -1.131747,-0.0859 -0.949005,0.30969 -1.082331,0.61985 -2.164661,1.23971 -3.2469923,1.85956 0.1203953,-0.06 0.2386893,-0.12444 0.3611853,-0.18005 0.537243,-0.24387 1.096618,-0.43365 1.637206,-0.67062 0.215841,-0.0946 0.429768,-0.19354 0.644652,-0.29031 2.008587,-0.80796 0.53942,-0.18278 4.50517,-2.46169 0.144364,-0.083 0.463914,-0.25848 0.445767,-0.36794 -0.101648,-0.61313 -0.133426,-0.53482 -0.412464,-0.4192 -0.401304,0.23396 -0.18353,0.10952 -0.654449,0.37135 -0.477215,0.27788 -4.239331,1.00759 -3.701245,2.75282 0.04527,0.14684 0.506831,-0.19114 0.460723,0.015 0.937915,-0.0823 1.885997,-0.25645 2.755524,-0.62618 1.986979,-0.94017 3.947656,-1.9755 5.590581,-3.44036 1.28315,-0.89188 0.432506,-0.28602 -2.646503,1.47396 -0.113791,0.065 0.223106,-0.13825 0.340069,-0.1974 0.527974,-0.267 0.09502,0.007 0.575194,-0.26643 1.203877,-0.68604 2.403112,-1.3802 3.604668,-2.0703 -0.06439,-0.19696 1.74e-4,-0.66544 -0.193171,-0.59089 -0.32804,0.12649 -8.483031,4.92899 -0.374783,0.21701 0.101053,-0.0587 -0.209961,0.10295 -0.312376,0.15927 -0.839832,0.46181 0.222615,-0.0881 -0.654474,0.35866 -0.758689,0.42108 -1.583487,0.70939 -2.427186,0.9093 -0.788256,0.23155 -1.571957,0.47312 -2.359375,0.70379 -0.950698,0.33737 -1.811117,0.87688 -2.776802,1.17994 -1.087238,0.4264 -2.184034,0.86166 -3.337407,1.07172 0,0 -3.135969,2.38489 -3.135969,2.38489 z" />
    <circle
       id="path9511"
       style="fill:#ffffff;stroke:#000000;stroke-width:0.264583"
       cx="431.7923"
       cy="39.980766"
       r="0.076077133" />
    <circle
       id="path9513"
       style="fill:#ffffff;stroke:#000000;stroke-width:0.264583"
       cx="431.7923"
       cy="39.980766"
       r="0.076077133" />
    <circle
       id="path9536"
       style="fill:#ffffff;stroke:#000000;stroke-width:0.264583"
       cx="139.36153"
       cy="167.34807"
       r="0.076077133" />
    <circle
       id="path9538"
       style="fill:#ffffff;stroke:#000000;stroke-width:0.264583"
       cx="139.36153"
       cy="167.34807"
       r="0.076077133" />
  </g>
</svg>
